# File created by Blade
# Date/Time:  Thu Jan 22 16:10:14 2015
# Frame Rate: 120.000 fps
#------------------------------------------------------
:FULLY-SPECIFIED
:DEGREES
1493
root 0.744027 34.936603 4.221502 -0.926826 2.497727 3.361283
RightUpLeg 9.428337 -16.447088 -25.597149
RightLeg -7.161554 -0.000000 0.000000
RightFoot -4.332677 -26.081870 31.162784
RightToeBase 13.655014 -0.000000 -0.000000
LeftUpLeg 3.003795 5.758432 17.789149
LeftLeg 3.732643 -0.000000 -0.000000
LeftFoot -6.996554 14.409780 -32.140419
LeftToeBase 10.062779 -0.000000 -0.000000
Spine 13.807645 -6.495902 -6.488795
RightShoulder -7.687204 -11.462996 -26.139943
RightArm 9.621742 32.330469 38.219755
RightForeArm 10.108805 -0.000000 22.604724
RightHand 4.367741 0.000000 -15.321474
RightHandThumb1 -24.326973 -0.000000 -32.862282
LeftShoulder -29.046357 34.196461 15.173225
LeftArm 45.335513 -46.521811 -56.459329
LeftForeArm 29.787406 -0.000000 8.346757
LeftHand -22.132815 -0.000000 1.404716
LeftHandThumb1 -26.253704 0.000000 33.147579
Head -12.545306 12.863241 5.385235
1494
root 0.753442 34.935049 4.228044 -0.918744 2.527785 3.402172
RightUpLeg 9.457497 -16.592419 -25.662707
RightLeg -7.182295 -0.000000 0.000000
RightFoot -4.260329 -26.032011 31.069905
RightToeBase 13.674855 -0.000000 -0.000000
LeftUpLeg 3.049593 5.932540 17.757226
LeftLeg 3.631145 -0.000000 -0.000000
LeftFoot -6.864638 14.262393 -32.156708
LeftToeBase 10.008043 -0.000000 -0.000000
Spine 13.730874 -6.545412 -6.463915
RightShoulder -7.697860 -11.392538 -26.183292
RightArm 9.515194 32.317077 38.123716
RightForeArm 10.138045 -0.000000 22.618684
RightHand 4.340623 -0.000000 -15.306832
RightHandThumb1 -24.326973 -0.000000 -32.862282
LeftShoulder -29.078473 34.174243 15.222660
LeftArm 45.330556 -46.532245 -56.314753
LeftForeArm 29.611246 -0.000000 8.235250
LeftHand -22.040189 -0.000000 1.472754
LeftHandThumb1 -26.253704 0.000000 33.147579
Head -12.447205 12.817579 5.375730
1495
root 0.759608 34.935204 4.235827 -0.920499 2.517071 3.403866
RightUpLeg 9.450073 -16.710361 -25.682222
RightLeg -7.154369 -0.000000 0.000000
RightFoot -4.201284 -25.950093 31.034698
RightToeBase 13.626487 -0.000000 -0.000000
LeftUpLeg 3.118733 6.147928 17.773263
LeftLeg 3.525890 -0.000000 -0.000000
LeftFoot -6.812176 14.104604 -32.311717
LeftToeBase 10.258798 -0.000000 -0.000000
Spine 13.659736 -6.557555 -6.390660
RightShoulder -7.695046 -11.318067 -26.240149
RightArm 9.387530 32.314127 38.023755
RightForeArm 10.014359 -0.000000 22.639479
RightHand 4.203072 -0.000000 -15.090478
RightHandThumb1 -24.326973 -0.000000 -32.862282
LeftShoulder -29.078441 34.125753 15.274285
LeftArm 45.358112 -46.644020 -56.285619
LeftForeArm 29.595371 -0.000000 8.159165
LeftHand -22.021462 -0.000000 1.570991
LeftHandThumb1 -26.253704 0.000000 33.147579
Head -12.349141 12.833028 5.336285
1496
root 0.763347 34.937328 4.243299 -0.919619 2.470456 3.369740
RightUpLeg 9.390240 -16.813019 -25.656335
RightLeg -7.067613 -0.000000 0.000000
RightFoot -4.147668 -25.848676 30.988917
RightToeBase 13.651956 -0.000000 -0.000000
LeftUpLeg 3.192636 6.368352 17.824670
LeftLeg 3.434394 -0.000000 -0.000000
LeftFoot -6.704037 13.976975 -32.308800
LeftToeBase 10.246501 -0.000000 -0.000000
Spine 13.579291 -6.500695 -6.271834
RightShoulder -7.723138 -11.278541 -26.277677
RightArm 9.272869 32.213974 37.890520
RightForeArm 10.022005 -0.000000 22.625559
RightHand 4.225402 -0.000000 -14.954618
RightHandThumb1 -24.326973 -0.000000 -32.862282
LeftShoulder -29.009395 34.034515 15.388106
LeftArm 45.200512 -46.634694 -56.071979
LeftForeArm 29.454226 -0.000000 8.084049
LeftHand -22.073470 0.000000 1.639773
LeftHandThumb1 -26.253704 0.000000 33.147579
Head -12.255125 12.822607 5.340871
1497
root 0.768276 34.939471 4.249018 -0.913970 2.406422 3.338449
RightUpLeg 9.295822 -16.877254 -25.630873
RightLeg -6.945538 -0.000000 0.000000
RightFoot -4.110390 -25.741956 30.972691
RightToeBase 13.642842 -0.000000 -0.000000
LeftUpLeg 3.263216 6.556600 17.868769
LeftLeg 3.350369 -0.000000 -0.000000
LeftFoot -6.611516 13.895648 -32.302152
LeftToeBase 10.174339 -0.000000 -0.000000
Spine 13.503760 -6.445201 -6.156557
RightShoulder -7.744411 -11.293492 -26.308205
RightArm 9.247237 32.222377 37.809068
RightForeArm 9.901360 -0.000000 22.580145
RightHand 4.191243 0.000000 -14.770572
RightHandThumb1 -24.326973 -0.000000 -32.862282
LeftShoulder -29.002371 34.000315 15.443387
LeftArm 45.253686 -46.736833 -56.091944
LeftForeArm 29.466605 -0.000000 7.993436
LeftHand -22.027479 -0.000000 1.626394
LeftHandThumb1 -26.253704 0.000000 33.147579
Head -12.177833 12.811452 5.313330
